<svg xmlns="http://www.w3.org/2000/svg" xmlns:xlink="http://www.w3.org/1999/xlink" width="500" zoomAndPan="magnify" viewBox="0 0 375 374.999991" height="500" preserveAspectRatio="xMidYMid meet" version="1.2"><defs><clipPath id="81b659b181"><path d="M 0 0 L 367 0 L 367 375 L 0 375 Z M 0 0 "/></clipPath><clipPath id="e49ab106f3"><path d="M 259.671875 -78.089844 L 406.21875 270.320312 L 139.171875 382.640625 L -7.371094 34.230469 Z M 259.671875 -78.089844 "/></clipPath><clipPath id="499911db96"><path d="M 302.804688 24.453125 L 363.253906 168.175781 C 369.996094 184.199219 365.484375 202.742188 352.140625 213.882812 L 164.429688 370.554688 C 159.164062 374.953125 152.125 376.589844 145.457031 374.96875 C 138.792969 373.347656 133.292969 368.660156 130.632812 362.335938 L 1.335938 54.933594 C -1.324219 48.613281 -0.824219 41.402344 2.675781 35.503906 C 6.179688 29.605469 12.273438 25.71875 19.097656 25.03125 L 262.359375 0.433594 C 279.65625 -1.316406 296.0625 8.429688 302.804688 24.453125 Z M 302.804688 24.453125 "/></clipPath><clipPath id="2a6bace484"><path d="M 0 0 L 367 0 L 367 375 L 0 375 Z M 0 0 "/></clipPath><clipPath id="09ec879895"><path d="M 257.039062 -84.347656 L 409.066406 277.09375 L 142.386719 389.261719 L -9.636719 27.820312 Z M 257.039062 -84.347656 "/></clipPath><clipPath id="d16b8e897e"><path d="M 259.191406 -79.234375 L 407.433594 273.210938 L 136.714844 387.078125 L -11.523438 34.632812 Z M 259.191406 -79.234375 "/></clipPath><clipPath id="f76e99fcca"><path d="M 302.742188 24.3125 L 363.113281 167.839844 C 369.84375 183.839844 365.339844 202.359375 352.011719 213.480469 L 164.558594 369.941406 C 159.300781 374.328125 152.269531 375.964844 145.613281 374.34375 C 138.957031 372.726562 133.464844 368.046875 130.808594 361.730469 L 1.691406 54.75 C -0.964844 48.4375 -0.46875 41.238281 3.03125 35.347656 C 6.527344 29.457031 12.613281 25.578125 19.425781 24.886719 L 262.355469 0.324219 C 279.628906 -1.421875 296.015625 8.308594 302.742188 24.3125 Z M 302.742188 24.3125 "/></clipPath><clipPath id="d3faee8c3c"><path d="M 54 7 L 345 7 L 345 298 L 54 298 Z M 54 7 "/></clipPath><clipPath id="db7596dc42"><path d="M 135.734375 -42.339844 L 394.332031 88.699219 L 263.292969 347.296875 L 4.695312 216.257812 Z M 135.734375 -42.339844 "/></clipPath><clipPath id="01b3756c28"><path d="M 265.03125 23.179688 C 193.621094 -13.007812 106.398438 15.546875 70.214844 86.960938 C 34.027344 158.371094 62.582031 245.59375 133.992188 281.777344 C 205.402344 317.964844 292.628906 289.410156 328.8125 218 C 365 146.585938 336.441406 59.363281 265.03125 23.179688 Z M 265.03125 23.179688 "/></clipPath><clipPath id="622f46df20"><path d="M 54 7 L 345 7 L 345 298 L 54 298 Z M 54 7 "/></clipPath><clipPath id="d24e2c38df"><path d="M 135.734375 -42.339844 L 394.609375 88.839844 L 263.429688 347.71875 L 4.550781 216.539062 Z M 135.734375 -42.339844 "/></clipPath><clipPath id="4e1146bbcb"><path d="M 135.734375 -42.339844 L 394.332031 88.699219 L 263.292969 347.296875 L 4.695312 216.257812 Z M 135.734375 -42.339844 "/></clipPath><clipPath id="d4f3e2cf7d"><path d="M 265.03125 23.179688 C 193.621094 -13.007812 106.398438 15.546875 70.214844 86.957031 C 34.027344 158.371094 62.582031 245.59375 133.992188 281.777344 C 205.402344 317.964844 292.628906 289.40625 328.8125 217.996094 C 364.996094 146.585938 336.441406 59.363281 265.03125 23.179688 Z M 265.03125 23.179688 "/></clipPath><clipPath id="38d4b57beb"><path d="M 91 23 L 308 23 L 308 282 L 91 282 Z M 91 23 "/></clipPath><clipPath id="2b016bf6d9"><path d="M 191.652344 17.289062 L 313.320312 79.097656 L 207.332031 287.738281 L 85.664062 225.933594 Z M 191.652344 17.289062 "/></clipPath><clipPath id="fd2744e21f"><path d="M 207.03125 25.101562 L 297.941406 71.285156 C 306.433594 75.597656 309.820312 85.980469 305.507812 94.476562 L 215.183594 272.285156 C 210.867188 280.78125 200.484375 284.167969 191.992188 279.851562 L 101.082031 233.671875 C 92.585938 229.359375 89.199219 218.972656 93.515625 210.480469 L 183.839844 32.671875 C 188.152344 24.175781 198.539062 20.789062 207.03125 25.101562 Z M 207.03125 25.101562 "/></clipPath><clipPath id="22e96690bb"><path d="M 91 23 L 308 23 L 308 282 L 91 282 Z M 91 23 "/></clipPath><clipPath id="760e0eb809"><path d="M 191.652344 17.289062 L 313.320312 79.097656 L 207.425781 287.554688 L 85.757812 225.75 Z M 191.652344 17.289062 "/></clipPath><clipPath id="5187a05fd3"><path d="M 191.65625 17.292969 L 313.257812 79.066406 L 207.085938 288.070312 L 85.484375 226.296875 Z M 191.65625 17.292969 "/></clipPath><clipPath id="fbc805f75c"><path d="M 207.027344 25.101562 L 297.886719 71.257812 C 306.375 75.570312 309.761719 85.945312 305.449219 94.4375 L 215.171875 272.152344 C 210.859375 280.640625 200.480469 284.027344 191.992188 279.714844 L 101.132812 233.558594 C 92.644531 229.246094 89.257812 218.867188 93.570312 210.378906 L 183.847656 32.664062 C 188.160156 24.175781 198.535156 20.789062 207.027344 25.101562 Z M 207.027344 25.101562 "/></clipPath></defs><g id="cf232d12f3"><g clip-rule="nonzero" clip-path="url(#81b659b181)"><g clip-rule="nonzero" clip-path="url(#e49ab106f3)"><g clip-rule="nonzero" clip-path="url(#499911db96)"><path style=" stroke:none;fill-rule:nonzero;fill:#f8cf40;fill-opacity:1;" d="M 257.039062 -84.347656 L 408.851562 276.578125 L 141.804688 388.902344 L -10.003906 27.972656 Z M 257.039062 -84.347656 "/></g></g></g><g clip-rule="nonzero" clip-path="url(#2a6bace484)"><g clip-rule="nonzero" clip-path="url(#09ec879895)"><g clip-rule="nonzero" clip-path="url(#d16b8e897e)"><g clip-rule="nonzero" clip-path="url(#f76e99fcca)"><path style="fill:none;stroke-width:6.595053;stroke-linecap:butt;stroke-linejoin:miter;stroke:#000000;stroke-opacity:1;stroke-miterlimit:4;" d="M 129.73368 0.00226426 L 301.110406 -0.000115653 C 320.215176 -0.000867294 337.082129 12.4713 342.677521 30.738926 L 421.423054 287.684282 C 423.629932 294.89049 422.290043 302.722434 417.80498 308.783732 C 413.323881 314.846698 406.232474 318.421823 398.690711 318.421335 L 32.147847 318.420066 C 24.610047 318.421245 17.517816 314.845846 13.035056 308.781262 C 8.550628 302.72064 7.21233 294.890959 9.417935 287.684336 L 88.162467 30.739969 C 93.761992 12.470199 110.626613 -0.00261406 129.73368 0.00226426 Z M 129.73368 0.00226426 " transform="matrix(0.35226,0.837501,-0.837501,0.35226,257.044147,-84.340386)"/></g></g></g></g><g clip-rule="nonzero" clip-path="url(#d3faee8c3c)"><g clip-rule="nonzero" clip-path="url(#db7596dc42)"><g clip-rule="nonzero" clip-path="url(#01b3756c28)"><path style=" stroke:none;fill-rule:nonzero;fill:#5f8216;fill-opacity:1;" d="M 135.734375 -42.339844 L 394.332031 88.699219 L 263.292969 347.296875 L 4.695312 216.257812 Z M 135.734375 -42.339844 "/></g></g></g><g clip-rule="nonzero" clip-path="url(#622f46df20)"><g clip-rule="nonzero" clip-path="url(#d24e2c38df)"><g clip-rule="nonzero" clip-path="url(#4e1146bbcb)"><g clip-rule="nonzero" clip-path="url(#d4f3e2cf7d)"><path style="fill:none;stroke-width:6.595053;stroke-linecap:butt;stroke-linejoin:miter;stroke:#000000;stroke-opacity:1;stroke-miterlimit:4;" d="M 159.327849 0.00173311 C 71.332371 -0.000496221 -0.000896903 71.331956 0.000703775 159.325493 C 0.000415203 247.324801 71.332868 318.658069 159.326404 318.656468 C 247.321882 318.658698 318.65704 247.320475 318.655439 159.326938 C 318.653838 71.333401 247.321386 0.000132428 159.327849 0.00173311 Z M 159.327849 0.00173311 " transform="matrix(0.811531,0.411222,-0.411222,0.811531,135.732447,-42.340862)"/></g></g></g></g><g clip-rule="nonzero" clip-path="url(#38d4b57beb)"><g clip-rule="nonzero" clip-path="url(#2b016bf6d9)"><g clip-rule="nonzero" clip-path="url(#fd2744e21f)"><path style=" stroke:none;fill-rule:nonzero;fill:#7b3f00;fill-opacity:1;" d="M 191.652344 17.289062 L 313.320312 79.097656 L 207.332031 287.738281 L 85.664062 225.933594 Z M 191.652344 17.289062 "/></g></g></g><g clip-rule="nonzero" clip-path="url(#22e96690bb)"><g clip-rule="nonzero" clip-path="url(#760e0eb809)"><g clip-rule="nonzero" clip-path="url(#5187a05fd3)"><g clip-rule="nonzero" clip-path="url(#fbc805f75c)"><path style="fill:none;stroke-width:6.595053;stroke-linecap:butt;stroke-linejoin:miter;stroke:#000000;stroke-opacity:1;stroke-miterlimit:4;" d="M 18.961407 0.000349498 L 131.033825 0.00136653 C 141.504115 0.00193444 149.992013 8.487413 149.99339 18.961533 L 149.992564 238.167075 C 149.991996 248.637366 141.502688 257.127209 131.032397 257.126641 L 18.959979 257.125624 C 8.489689 257.125056 -0.000153986 248.635748 0.000413922 238.165457 L 0.00124069 18.959915 C 0.0018086 8.489625 8.487287 0.00172713 18.961407 0.000349498 Z M 18.961407 0.000349498 " transform="matrix(0.810724,0.411836,-0.411836,0.810724,191.655021,17.292294)"/></g></g></g></g><path style=" stroke:none;fill-rule:nonzero;fill:#381682;fill-opacity:0.93;" d="M 42.8125 147.921875 C 42.644531 147.460938 42.519531 146.984375 42.441406 146.5 C 42.367188 146.015625 42.335938 145.527344 42.355469 145.035156 C 42.371094 144.542969 42.4375 144.058594 42.550781 143.578125 C 42.664062 143.101562 42.824219 142.636719 43.027344 142.191406 C 43.230469 141.742188 43.476562 141.320312 43.765625 140.917969 C 44.050781 140.519531 44.375 140.152344 44.730469 139.816406 C 45.089844 139.480469 45.480469 139.179688 45.894531 138.917969 C 46.3125 138.660156 46.753906 138.441406 47.210938 138.265625 C 53.40625 136.054688 59.652344 134.003906 65.953125 132.113281 C 72.253906 130.226562 78.597656 128.5 84.988281 126.941406 C 91.378906 125.378906 97.804688 123.988281 104.265625 122.757812 C 110.730469 121.53125 117.21875 120.472656 123.734375 119.582031 C 130.253906 118.691406 136.789062 117.96875 143.34375 117.414062 C 149.894531 116.863281 156.460938 116.480469 163.035156 116.269531 C 169.609375 116.054688 176.183594 116.015625 182.761719 116.140625 C 189.335938 116.269531 195.90625 116.570312 202.464844 117.035156 C 209.027344 117.503906 215.570312 118.144531 222.097656 118.949219 C 228.625 119.757812 235.128906 120.734375 241.605469 121.878906 C 248.082031 123.023438 254.527344 124.335938 260.933594 125.8125 C 267.34375 127.289062 273.710938 128.933594 280.035156 130.742188 C 286.359375 132.550781 292.632812 134.519531 298.855469 136.652344 C 305.078125 138.785156 311.238281 141.078125 317.34375 143.53125 C 323.445312 145.984375 329.480469 148.59375 335.449219 151.359375 C 341.417969 154.121094 347.308594 157.039062 353.128906 160.109375 C 353.558594 160.347656 353.960938 160.625 354.335938 160.945312 C 354.714844 161.261719 355.054688 161.613281 355.363281 161.996094 C 355.667969 162.378906 355.9375 162.789062 356.164062 163.226562 C 356.390625 163.664062 356.574219 164.117188 356.710938 164.589844 C 356.851562 165.058594 356.941406 165.542969 356.984375 166.03125 C 357.03125 166.519531 357.027344 167.011719 356.972656 167.5 C 356.921875 167.988281 356.824219 168.46875 356.679688 168.9375 C 356.53125 169.410156 356.34375 169.859375 356.109375 170.292969 L 338.234375 202.589844 C 337.996094 203.03125 337.722656 203.441406 337.402344 203.828125 C 337.085938 204.210938 336.730469 204.558594 336.34375 204.875 C 335.957031 205.1875 335.542969 205.460938 335.101562 205.691406 C 334.660156 205.925781 334.199219 206.109375 333.722656 206.25 C 333.242188 206.390625 332.753906 206.484375 332.257812 206.527344 C 331.761719 206.570312 331.265625 206.566406 330.769531 206.511719 C 330.273438 206.457031 329.789062 206.351562 329.3125 206.203125 C 328.839844 206.050781 328.382812 205.855469 327.945312 205.613281 C 322.953125 202.996094 317.894531 200.511719 312.773438 198.15625 C 307.65625 195.800781 302.476562 193.578125 297.242188 191.488281 C 292.007812 189.402344 286.71875 187.445312 281.386719 185.628906 C 276.050781 183.8125 270.671875 182.132812 265.25 180.589844 C 259.828125 179.050781 254.367188 177.648438 248.875 176.390625 C 243.378906 175.128906 237.859375 174.011719 232.304688 173.035156 C 226.753906 172.058594 221.183594 171.226562 215.585938 170.535156 C 209.992188 169.84375 204.386719 169.300781 198.761719 168.898438 C 193.140625 168.496094 187.511719 168.242188 181.875 168.128906 C 176.238281 168.015625 170.605469 168.050781 164.972656 168.226562 C 159.335938 168.40625 153.710938 168.726562 148.09375 169.195312 C 142.476562 169.660156 136.875 170.269531 131.289062 171.027344 C 125.703125 171.78125 120.140625 172.679688 114.601562 173.71875 C 109.0625 174.761719 103.550781 175.945312 98.074219 177.269531 C 92.59375 178.59375 87.152344 180.054688 81.75 181.660156 C 76.34375 183.265625 70.988281 185.007812 65.671875 186.886719 C 65.207031 187.0625 64.726562 187.191406 64.234375 187.273438 C 63.742188 187.355469 63.25 187.390625 62.75 187.371094 C 62.25 187.355469 61.757812 187.292969 61.273438 187.175781 C 60.789062 187.0625 60.320312 186.902344 59.867188 186.695312 C 59.410156 186.488281 58.984375 186.238281 58.578125 185.945312 C 58.175781 185.65625 57.804688 185.324219 57.464844 184.960938 C 57.125 184.59375 56.828125 184.199219 56.566406 183.773438 C 56.304688 183.347656 56.089844 182.902344 55.917969 182.433594 Z M 42.8125 147.921875 "/><path style=" stroke:none;fill-rule:nonzero;fill:#000000;fill-opacity:1;" d="M 67.316406 183.453125 L 75.304688 180.804688 L 76.214844 183.558594 L 68.226562 186.203125 Z M 67.316406 183.453125 "/><g style="fill:#000000;fill-opacity:1;"><g transform="translate(66.632188, 181.387526)"><path style="stroke:none" d=""/></g></g><path style=" stroke:none;fill-rule:nonzero;fill:#000000;fill-opacity:1;" d="M 74.773438 180.972656 L 82.820312 178.515625 L 83.667969 181.289062 L 75.617188 183.746094 Z M 74.773438 180.972656 "/><g style="fill:#000000;fill-opacity:1;"><g transform="translate(74.137633, 178.894363)"><path style="stroke:none" d=""/></g></g><path style=" stroke:none;fill-rule:nonzero;fill:#000000;fill-opacity:1;" d="M 82.285156 178.671875 L 90.390625 176.40625 L 91.167969 179.199219 L 83.066406 181.464844 Z M 82.285156 178.671875 "/><g style="fill:#000000;fill-opacity:1;"><g transform="translate(81.699946, 176.579403)"><path style="stroke:none" d=""/></g></g><path style=" stroke:none;fill-rule:nonzero;fill:#000000;fill-opacity:1;" d="M 89.851562 176.550781 L 98.003906 174.476562 L 98.71875 177.289062 L 90.566406 179.359375 Z M 89.851562 176.550781 "/><g style="fill:#000000;fill-opacity:1;"><g transform="translate(89.314901, 174.443952)"><path style="stroke:none" d=""/></g></g><path style=" stroke:none;fill-rule:nonzero;fill:#000000;fill-opacity:1;" d="M 97.464844 174.609375 L 105.664062 172.730469 L 106.3125 175.554688 L 98.113281 177.433594 Z M 97.464844 174.609375 "/><g style="fill:#000000;fill-opacity:1;"><g transform="translate(96.978235, 172.489216)"><path style="stroke:none" d=""/></g></g><path style=" stroke:none;fill-rule:nonzero;fill:#000000;fill-opacity:1;" d="M 105.121094 172.847656 L 113.363281 171.160156 L 113.945312 174 L 105.703125 175.6875 Z M 105.121094 172.847656 "/><g style="fill:#000000;fill-opacity:1;"><g transform="translate(104.68565, 170.716291)"><path style="stroke:none" d=""/></g></g><path style=" stroke:none;fill-rule:nonzero;fill:#000000;fill-opacity:1;" d="M 112.816406 171.265625 L 121.097656 169.777344 L 121.613281 172.628906 L 113.332031 174.121094 Z M 112.816406 171.265625 "/><g style="fill:#000000;fill-opacity:1;"><g transform="translate(112.432859, 169.126166)"><path style="stroke:none" d=""/></g></g><path style=" stroke:none;fill-rule:nonzero;fill:#000000;fill-opacity:1;" d="M 120.550781 169.867188 L 128.863281 168.574219 L 129.308594 171.4375 L 120.996094 172.734375 Z M 120.550781 169.867188 "/><g style="fill:#000000;fill-opacity:1;"><g transform="translate(120.215514, 167.719732)"><path style="stroke:none" d=""/></g></g><path style=" stroke:none;fill-rule:nonzero;fill:#000000;fill-opacity:1;" d="M 128.3125 168.652344 L 136.65625 167.558594 L 137.03125 170.429688 L 128.691406 171.527344 Z M 128.3125 168.652344 "/><g style="fill:#000000;fill-opacity:1;"><g transform="translate(128.029239, 166.497762)"><path style="stroke:none" d=""/></g></g><path style=" stroke:none;fill-rule:nonzero;fill:#000000;fill-opacity:1;" d="M 136.101562 167.621094 L 144.46875 166.722656 L 144.777344 169.605469 L 136.410156 170.503906 Z M 136.101562 167.621094 "/><g style="fill:#000000;fill-opacity:1;"><g transform="translate(135.869688, 165.460956)"><path style="stroke:none" d=""/></g></g><path style=" stroke:none;fill-rule:nonzero;fill:#000000;fill-opacity:1;" d="M 143.914062 166.777344 L 152.296875 166.074219 L 152.539062 168.964844 L 144.15625 169.664062 Z M 143.914062 166.777344 "/><g style="fill:#000000;fill-opacity:1;"><g transform="translate(143.732471, 164.609889)"><path style="stroke:none" d=""/></g></g><path style=" stroke:none;fill-rule:nonzero;fill:#000000;fill-opacity:1;" d="M 151.742188 166.117188 L 160.140625 165.613281 L 160.316406 168.507812 L 151.917969 169.007812 Z M 151.742188 166.117188 "/><g style="fill:#000000;fill-opacity:1;"><g transform="translate(151.61318, 163.945031)"><path style="stroke:none" d=""/></g></g><path style=" stroke:none;fill-rule:nonzero;fill:#000000;fill-opacity:1;" d="M 159.585938 165.640625 L 167.996094 165.335938 L 168.097656 168.234375 L 159.691406 168.535156 Z M 159.585938 165.640625 "/><g style="fill:#000000;fill-opacity:1;"><g transform="translate(159.507419, 163.466758)"><path style="stroke:none" d=""/></g></g><path style=" stroke:none;fill-rule:nonzero;fill:#000000;fill-opacity:1;" d="M 167.4375 165.347656 L 175.851562 165.246094 L 175.886719 168.144531 L 167.472656 168.25 Z M 167.4375 165.347656 "/><g style="fill:#000000;fill-opacity:1;"><g transform="translate(167.410756, 163.175349)"><path style="stroke:none" d=""/></g></g><path style=" stroke:none;fill-rule:nonzero;fill:#000000;fill-opacity:1;" d="M 175.292969 165.246094 L 183.707031 165.339844 L 183.675781 168.238281 L 175.261719 168.144531 Z M 175.292969 165.246094 "/><g style="fill:#000000;fill-opacity:1;"><g transform="translate(175.318771, 163.070948)"><path style="stroke:none" d=""/></g></g><path style=" stroke:none;fill-rule:nonzero;fill:#000000;fill-opacity:1;" d="M 183.152344 165.328125 L 191.558594 165.621094 L 191.460938 168.515625 L 183.050781 168.222656 Z M 183.152344 165.328125 "/><g style="fill:#000000;fill-opacity:1;"><g transform="translate(183.227046, 163.153628)"><path style="stroke:none" d=""/></g></g><path style=" stroke:none;fill-rule:nonzero;fill:#000000;fill-opacity:1;" d="M 191.003906 165.59375 L 199.402344 166.085938 L 199.234375 168.980469 L 190.835938 168.488281 Z M 191.003906 165.59375 "/><g style="fill:#000000;fill-opacity:1;"><g transform="translate(191.131158, 163.423326)"><path style="stroke:none" d=""/></g></g><path style=" stroke:none;fill-rule:nonzero;fill:#000000;fill-opacity:1;" d="M 198.847656 166.046875 L 207.234375 166.738281 L 206.996094 169.625 L 198.609375 168.9375 Z M 198.847656 166.046875 "/><g style="fill:#000000;fill-opacity:1;"><g transform="translate(199.026679, 163.879908)"><path style="stroke:none" d=""/></g></g><path style=" stroke:none;fill-rule:nonzero;fill:#000000;fill-opacity:1;" d="M 206.679688 166.683594 L 215.046875 167.574219 L 214.742188 170.457031 L 206.375 169.566406 Z M 206.679688 166.683594 "/><g style="fill:#000000;fill-opacity:1;"><g transform="translate(206.909183, 164.52312)"><path style="stroke:none" d=""/></g></g><path style=" stroke:none;fill-rule:nonzero;fill:#000000;fill-opacity:1;" d="M 214.492188 167.507812 L 222.835938 168.59375 L 222.460938 171.46875 L 214.121094 170.382812 Z M 214.492188 167.507812 "/><g style="fill:#000000;fill-opacity:1;"><g transform="translate(214.774268, 165.352589)"><path style="stroke:none" d=""/></g></g><path style=" stroke:none;fill-rule:nonzero;fill:#000000;fill-opacity:1;" d="M 222.285156 168.515625 L 230.601562 169.800781 L 230.160156 172.664062 L 221.84375 171.382812 Z M 222.285156 168.515625 "/><g style="fill:#000000;fill-opacity:1;"><g transform="translate(222.617534, 166.367865)"><path style="stroke:none" d=""/></g></g><path style=" stroke:none;fill-rule:nonzero;fill:#000000;fill-opacity:1;" d="M 230.050781 169.707031 L 238.335938 171.1875 L 237.824219 174.042969 L 229.542969 172.5625 Z M 230.050781 169.707031 "/><g style="fill:#000000;fill-opacity:1;"><g transform="translate(230.434608, 167.568346)"><path style="stroke:none" d=""/></g></g><path style=" stroke:none;fill-rule:nonzero;fill:#000000;fill-opacity:1;" d="M 237.789062 171.085938 L 246.035156 172.757812 L 245.457031 175.601562 L 237.210938 173.925781 Z M 237.789062 171.085938 "/><g style="fill:#000000;fill-opacity:1;"><g transform="translate(238.221086, 168.953409)"><path style="stroke:none" d=""/></g></g><path style=" stroke:none;fill-rule:nonzero;fill:#000000;fill-opacity:1;" d="M 245.488281 172.640625 L 253.691406 174.511719 L 253.046875 177.339844 L 244.84375 175.46875 Z M 245.488281 172.640625 "/><g style="fill:#000000;fill-opacity:1;"><g transform="translate(245.972618, 170.522256)"><path style="stroke:none" d=""/></g></g><path style=" stroke:none;fill-rule:nonzero;fill:#000000;fill-opacity:1;" d="M 253.152344 174.382812 L 261.308594 176.445312 L 260.597656 179.253906 L 252.441406 177.191406 Z M 253.152344 174.382812 "/><g style="fill:#000000;fill-opacity:1;"><g transform="translate(253.684872, 172.273996)"><path style="stroke:none" d=""/></g></g><path style=" stroke:none;fill-rule:nonzero;fill:#000000;fill-opacity:1;" d="M 260.769531 176.300781 L 268.875 178.558594 L 268.097656 181.351562 L 259.992188 179.09375 Z M 260.769531 176.300781 "/><g style="fill:#000000;fill-opacity:1;"><g transform="translate(261.353577, 174.207661)"><path style="stroke:none" d=""/></g></g><path style=" stroke:none;fill-rule:nonzero;fill:#000000;fill-opacity:1;" d="M 268.34375 178.402344 L 276.390625 180.847656 L 275.550781 183.625 L 267.5 181.175781 Z M 268.34375 178.402344 "/><g style="fill:#000000;fill-opacity:1;"><g transform="translate(268.974367, 176.322186)"><path style="stroke:none" d=""/></g></g><path style=" stroke:none;fill-rule:nonzero;fill:#000000;fill-opacity:1;" d="M 275.863281 180.679688 L 283.851562 183.316406 L 282.945312 186.070312 L 274.953125 183.433594 Z M 275.863281 180.679688 "/><g style="fill:#000000;fill-opacity:1;"><g transform="translate(276.542991, 178.616376)"><path style="stroke:none" d=""/></g></g><path style=" stroke:none;fill-rule:nonzero;fill:#000000;fill-opacity:1;" d="M 283.324219 183.136719 L 291.25 185.960938 L 290.277344 188.691406 L 282.351562 185.867188 Z M 283.324219 183.136719 "/><g style="fill:#000000;fill-opacity:1;"><g transform="translate(284.055255, 181.088922)"><path style="stroke:none" d=""/></g></g><path style=" stroke:none;fill-rule:nonzero;fill:#000000;fill-opacity:1;" d="M 290.730469 185.769531 L 298.585938 188.78125 L 297.546875 191.488281 L 289.691406 188.476562 Z M 290.730469 185.769531 "/><g style="fill:#000000;fill-opacity:1;"><g transform="translate(291.506961, 183.738469)"><path style="stroke:none" d=""/></g></g><path style=" stroke:none;fill-rule:nonzero;fill:#000000;fill-opacity:1;" d="M 298.066406 188.574219 L 305.851562 191.769531 L 304.75 194.453125 L 296.964844 191.257812 Z M 298.066406 188.574219 "/><g style="fill:#000000;fill-opacity:1;"><g transform="translate(298.893873, 186.563526)"><path style="stroke:none" d=""/></g></g><path style=" stroke:none;fill-rule:nonzero;fill:#000000;fill-opacity:1;" d="M 305.339844 191.554688 L 313.042969 194.933594 L 311.878906 197.589844 L 304.175781 194.207031 Z M 305.339844 191.554688 "/><g style="fill:#000000;fill-opacity:1;"><g transform="translate(306.211899, 189.562511)"><path style="stroke:none" d=""/></g></g><path style=" stroke:none;fill-rule:nonzero;fill:#000000;fill-opacity:1;" d="M 312.535156 194.703125 L 320.160156 198.265625 L 318.933594 200.890625 L 311.308594 197.332031 Z M 312.535156 194.703125 "/><g style="fill:#000000;fill-opacity:1;"><g transform="translate(313.456972, 192.73376)"><path style="stroke:none" d=""/></g></g><path style=" stroke:none;fill-rule:nonzero;fill:#000000;fill-opacity:1;" d="M 319.660156 198.023438 L 327.195312 201.761719 L 325.90625 204.359375 L 318.371094 200.621094 Z M 319.660156 198.023438 "/><g style="fill:#000000;fill-opacity:1;"><g transform="translate(320.624996, 196.075496)"><path style="stroke:none" d=""/></g></g></g></svg>